Simulation
nRows=48
nColumns=15
endheader
time  TH_x TH_y TH_z SC_y  SC_z  SC_x  AC_y  AC_z  AC_x  GH_y  GH_z  GH_yy  EL_x  PS_y
0.75  0.000000  0.000000  0.000000  -29.374795078626658  1.0911967729585126  21.815125528032333  53.624440515259046  1.485986635672405  -10.897150199153588  20.70142086300635  33.16127311257124  -17.415495723598415  19.942694754645238  0.000000
0.765  0.000000  0.000000  0.000000  -29.538022559669162  1.2071599039626362  22.046807505239652  53.75466389660318  1.8240145325565789  -10.805185693730042  20.781341943370883  33.6671549156552  -17.75199209525921  19.738218111478357  0.000000
0.78  0.000000  0.000000  0.000000  -29.708052388931787  1.3254794381166672  22.28170955986708  53.87956411453398  2.159938465392312  -10.707894107465025  20.868519330115763  34.15826268006036  -18.08771388870523  19.53212755843692  0.000000
0.7949999999999999  0.000000  0.000000  0.000000  -29.884477557685116  1.446503426703103  22.519853997949948  53.998414938391825  2.492726645310361  -10.605546325041352  20.96272262990889  34.634865662426044  -18.422839590060796  19.325162207963352  0.000000
0.8099999999999999  0.000000  0.000000  0.000000  -30.067187520783797  1.5707539950227394  22.761260706177726  54.11072132240236  2.821444855953452  -10.49843980538945  21.063416042034216  35.09705406246522  -18.75725559885839  19.118189508538634  0.000000
0.825  0.000000  0.000000  0.000000  -30.255824230802485  1.6979929703228616  23.005911568219535  54.21592076764313  3.1458858091341977  -10.386942899359697  21.16974690729631  35.544717488511075  -19.090614315411283  18.911791099298217  0.000000
0.84  0.000000  0.000000  0.000000  -30.449740435759573  1.827815681739326  23.25347040827484  54.31356365116268  3.4659341106484503  -10.271574024780366  21.280747392060157  35.97803723947765  -19.42275212928827  18.70636178482041  0.000000
0.855  0.000000  0.000000  0.000000  -30.64834794173858  1.959878987595391  23.503668856165604  54.403223107786424  3.7814886747599568  -10.15276998925908  21.395613573569012  36.396991101374574  -19.75328699080986  18.502375131304426  0.000000
0.87  0.000000  0.000000  0.000000  -30.85093079666564  2.0938586847640592  23.756044325636942  54.484382213168765  4.092363542749409  -10.031007504051308  21.51358496962963  36.80178825794157  -20.081768276861304  18.300379576030167  0.000000
0.885  0.000000  0.000000  0.000000  -31.056738486140468  2.2293734563395335  24.010238941151833  54.55669416130452  4.39846917408417  -9.906777369508417  21.63389125876753  37.192402434408365  -20.407574900148727  18.100962806669852  0.000000
0.8999999999999999  0.000000  0.000000  0.000000  -31.26491438922932  2.366041376518523  24.265703647851375  54.619802761116155  4.6996246844454115  -9.780564341024307  21.755712379522432  37.56903001423616  -20.73006316377157  17.904751421416005  0.000000
0.9149999999999999  0.000000  0.000000  0.000000  -31.47462400566503  2.503422202813627  24.52203901461875  54.67355847617412  4.99568717872888  -9.65283617440395  21.87820232386988  37.9316256636021  -21.048494250947783  17.712387584584892  0.000000
0.9299999999999999  0.000000  0.000000  0.000000  -31.68494500451525  2.641086376028901  24.778615469167665  54.71780408350675  5.286434565798025  -9.524080170297596  22.000507841475237  38.280406710350114  -21.362064518180848  17.524526088167374  0.000000
0.945  0.000000  0.000000  0.000000  -31.89500503185164  2.778561933894269  25.03499854675754  54.752560122704374  5.571662207455976  -9.39474942586485  22.121763189423746  38.615308361302915  -21.669870771697855  17.34184452527962  0.000000
0.96  0.000000  0.000000  0.000000  -32.1038554901628  2.9154054508158547  25.290483622423185  54.777853875565135  5.851069598944139  -9.265326301600513  22.241096925036768  38.9365827513365  -21.971000188420728  17.165006888656336  0.000000
0.975  0.000000  0.000000  0.000000  -32.31063038213135  3.05114012528944  25.544606234919723  54.79387861926593  6.124368193022583  -9.13624061181115  22.35763723978091  39.24416086488475  -22.264436340819813  16.99469154653092  0.000000
0.99  0.000000  0.000000  0.000000  -32.51439677284455  3.1853369904662228  25.79659829092251  54.80083797865594  6.3911568051308025  -9.007966421058226  22.470507966974658  39.53835284509002  -22.549211650882086  16.831548056174267  0.000000
1.005  0.000000  0.000000  0.000000  -32.71434010360459  3.317542858441805  26.045975176756162  54.799094650649444  6.65105797680754  -8.880901149822272  22.578845905954445  39.819106704043435  -22.82424957735782  16.676228215184086  0.000000
1.02  0.000000  0.000000  0.000000  -32.90958485458531  3.4473710134083984  26.291922573615118  54.789018659022766  6.903566582529995  -8.755509306403344  22.68178592751938  40.08682253949246  -23.088588632909914  16.529344001648774  0.000000
1.035  0.000000  0.000000  0.000000  -33.099409344400385  3.5744186732481524  26.53395099202479  54.77112757044054  7.14823412691118  -8.632146136253514  22.778491568225764  40.341493114221706  -23.341150225765517  16.391496616372002  0.000000
1.05  0.000000  0.000000  0.000000  -33.2830301374967  3.698367848906839  26.77122096456649  54.745939659239355  7.384471860916041  -8.511267785064115  22.868127980690552  40.583647701101285  -23.58104871954049  16.263237547210103  0.000000
1.065  0.000000  0.000000  0.000000  -33.45985026848949  3.818891122039163  27.003257224477956  54.71409389947232  7.611801380832863  -8.393175116426754  22.949910007255415  40.81335526208752  -23.807265427720115  16.14509726809036  0.000000
1.08  0.000000  0.000000  0.000000  -33.62920136805403  3.935763695902423  27.229219243211734  54.676224535866275  7.8295959330723  -8.278318197151693  23.02306363680571  41.03131140869475  -24.019068173196807  16.03754413994443  0.000000
1.095  0.000000  0.000000  0.000000  -33.79062773409577  4.0487553874814255  27.44866932484899  54.63303628878319  8.037409970074844  -8.166927158621196  23.086893995748383  41.23768273512016  -24.215565490003534  15.941020510515047  0.000000
1.1099999999999999  0.000000  0.000000  0.000000  -33.94357783451176  4.15775732436427  27.660789884263053  54.58522891220851  8.234639400254945  -8.059447631668649  23.140732415560276  41.43335637687681  -24.39626202368505  15.855888890264739  0.000000
1.125  0.000000  0.000000  0.000000  -34.08772896123617  4.262655791151828  27.86520033211705  54.53349723208597  8.420940084459552  -7.956019097352718  23.18402864762885  41.618600525118055  -24.56046737915912  15.782490003826974  0.000000
1.14  0.000000  0.000000  0.000000  -34.222625498090316  4.363474401405163  28.06112530625355  54.47853893967097  8.595798264031007  -7.857082287228692  23.216294596088844  41.79448385544514  -24.708005421137877  15.721060744065912  0.000000
1.155  0.000000  0.000000  0.000000  -34.3480449287242  4.460229195799497  28.24825345339575  54.420957658662715  8.75904028342865  -7.762665484423316  23.23721355674921  41.96132633975653  -24.83846857768029  15.671828703390416  0.000000
1.17  0.000000  0.000000  0.000000  -34.46355746435365  4.553092436586869  28.425851007699894  54.361357715272526  8.91030920094798  -7.673196462725189  23.246588089162017  42.1202935407513  -24.952079258914498  15.63487207977148  0.000000
1.185  0.000000  0.000000  0.000000  -34.56893139628969  4.642222273400785  28.593660472812594  54.300153766560484  9.04967137807669  -7.588573503487195  23.244439927859915  42.27160415245436  -25.048808791066104  15.610258876795164  0.000000
1.2  0.000000  0.000000  0.000000  -34.663662879895845  4.727923335530913  28.75097297323308  54.237754471493815  9.17697367648593  -7.509212688840882  23.23100218172189  42.41632254753102  -25.129348020412028  15.597874685016118  0.000000
1.2149999999999999  0.000000  0.000000  0.000000  -34.747554919802155  4.8104576160390575  28.897587846164384  54.17440390801373  9.292497611667427  -7.434912349942365  23.206833897655432  42.55431249689978  -25.19413100775202  15.597668856973115  0.000000
1.23  0.000000  0.000000  0.000000  -34.82014346534197  4.890241174349559  29.032730050249935  54.110371857824255  9.396235068624161  -7.366056450933387  23.17287488636745  42.686241304375535  -25.244366490179953  15.609391467982839  0.000000
1.2449999999999999  0.000000  0.000000  0.000000  -34.88117080990413  4.967576067780717  29.156105303607205  54.0457661257921  9.488696083362859  -7.302321848768424  23.13046534949093  42.81118300385498  -25.28104590703373  15.632783811702241  0.000000
1.26  0.000000  0.000000  0.000000  -34.92993751093417  5.0429842405401475  29.266719092881768  53.98049033097695  9.569933896563535  -7.243999012031461  23.081542156288076  42.92888216790801  -25.305939257251147  15.667319021305977  0.000000
1.275  0.000000  0.000000  0.000000  -34.96580024658086  5.116806329943519  29.363882241590638  53.91458781608861  9.640786608478887  -7.190766603148131  23.028401516003875  43.03695425822473  -25.320775842153733  15.7121842474176  0.000000
1.29  0.000000  0.000000  0.000000  -34.98755007473268  5.188959569124781  29.446078895627586  53.84772452174504  9.701785957379894  -7.14308762756103  22.973895571290477  43.13356885870006  -25.328056479082903  15.76636698303523  0.000000
1.305  0.000000  0.000000  0.000000  -34.994862291244935  5.259219343192139  29.512345894036894  53.78034719757518  9.75408442457778  -7.100938320723608  22.92141363042518  43.21407013736431  -25.3302381175717  15.828548932159219  0.000000
1.3199999999999998  0.000000  0.000000  0.000000  -34.987161675644586  5.32693798282781  29.560494324598867  53.71252562419575  9.79845486770566  -7.064958972196891  22.874820653939945  43.273924151324856  -25.330491352644433  15.897841627887003  0.000000
1.335  0.000000  0.000000  0.000000  -34.964829156108486  5.39019132699802  29.58857436495471  53.6461300662258  9.836977099640285  -7.035424104722202  22.838433480746986  43.305177062414664  -25.331845812680555  15.971878880018165  0.000000
1.3499999999999999  0.000000  0.000000  0.000000  -34.92827945126635  5.4464827530435915  29.59286103304915  53.582211299734404  9.870804134572229  -7.013200636313826  22.81712136452582  43.29982668466429  -25.338204176403885  16.0494338075437  0.000000
1.365  0.000000  0.000000  0.000000  -34.88072134790993  5.491854717207681  29.570948489223042  53.52547339902493  9.901154557186153  -6.999475431182266  22.816762781935775  43.24575656857577  -25.353413284802635  16.126311016550765  0.000000
1.38  0.000000  0.000000  0.000000  -34.82578223396898  5.521853205215035  29.51427604827464  53.478382958224906  9.930551109372658  -6.992918153850771  22.843003680399903  43.13047361588329  -25.382363648980323  16.20068654788585  0.000000
1.395  0.000000  0.000000  0.000000  -34.76898857727546  5.530020664683838  29.415532730950332  53.44820833533084  9.961829558531004  -6.9941244483861205  22.901680261097724  42.93732448153702  -25.42900748968956  16.266092707785425  0.000000
1.41  0.000000  0.000000  0.000000  -34.71618870995403  5.506270435374033  29.26882178830921  53.442361176727694  9.99330864868932  -7.005790147586824  22.998109671415673  42.65057214990569  -25.500544313755228  16.317283008573135  0.000000
1.425  0.000000  0.000000  0.000000  -34.67457783048806  5.436598209666118  29.061305355082624  53.47237557492178  10.031455900216816  -7.0304004705301715  23.138991236821685  42.25197840652409  -25.59847256154606  16.345318599095933  0.000000
1.44  0.000000  0.000000  0.000000  -34.64603145781173  5.315771644958054  28.779361077124864  53.54222610080864  10.072270188897027  -7.068737715789321  23.32583495916243  41.72100911296702  -25.72839628691163  16.348465161292705  0.000000
1.4549999999999998  0.000000  0.000000  0.000000  -34.631434138550944  5.13018709871354  28.428695658577393  53.65828811329931  10.091387034151536  -7.144758604813461  23.569917377873892  41.04651547416184  -25.875895950973067  16.322133335429573  0.000000
